<?xml version="1.0" encoding="utf-8" standalone="no"?>
<!DOCTYPE svg PUBLIC "-//W3C//DTD SVG 1.1//EN"
  "http://www.w3.org/Graphics/SVG/1.1/DTD/svg11.dtd">
<svg xmlns:xlink="http://www.w3.org/1999/xlink" width="266.112pt" height="266.112pt" viewBox="0 0 266.112 266.112" xmlns="http://www.w3.org/2000/svg" version="1.1">
 <metadata>
  <rdf:RDF xmlns:dc="http://purl.org/dc/elements/1.1/" xmlns:cc="http://creativecommons.org/ns#" xmlns:rdf="http://www.w3.org/1999/02/22-rdf-syntax-ns#">
   <cc:Work>
    <dc:type rdf:resource="http://purl.org/dc/dcmitype/StillImage"/>
    <dc:date>2024-05-12T17:14:19.381301</dc:date>
    <dc:format>image/svg+xml</dc:format>
    <dc:creator>
     <cc:Agent>
      <dc:title>Matplotlib v3.8.4, https://matplotlib.org/</dc:title>
     </cc:Agent>
    </dc:creator>
   </cc:Work>
  </rdf:RDF>
 </metadata>
 <defs>
  <style type="text/css">*{stroke-linejoin: round; stroke-linecap: butt}</style>
 </defs>
 <g id="figure_1">
  <g id="patch_1">
   <path d="M 0 266.112 
L 266.112 266.112 
L 266.112 0 
L 0 0 
z
" style="fill: #ffffff"/>
  </g>
  <g id="axes_1">
   <g id="PatchCollection_1">
    <path d="M 266.112 266.112 
L 266.112 -0 
L 0 -0 
L 0 266.112 
L 266.112 266.112 
" clip-path="url(#pa2f0b37b86)" style="fill: #0f056b"/>
   </g>
   <g id="text_1">
    <g clip-path="url(#pa2f0b37b86)">
     <!-- â–¯â–¯â–¯â–¯ð’·â–¯â–¯ -->
     <g style="fill: #ffffff" transform="translate(4.522328 150.050219) scale(0.61 -0.61)">
      <defs>
       <path id="DejaVuSansMono-25af" d="M 1369 113 
L 2481 113 
L 2481 3213 
L 1369 3213 
L 1369 113 
z
M 1013 -244 
L 1013 3569 
L 2838 3569 
L 2838 -244 
L 1013 -244 
z
" transform="scale(0.015625)"/>
       <path id="DejaVuSansMono-1d4b7" d="M 325 -1131 
L 325 4513 
L 3525 4513 
L 3525 -1131 
L 325 -1131 
z
M 684 -775 
L 3169 -775 
L 3169 4153 
L 684 4153 
L 684 -775 
z
" transform="scale(0.015625)"/>
      </defs>
      <use xlink:href="#DejaVuSansMono-25af"/>
      <use xlink:href="#DejaVuSansMono-25af" x="60.205078"/>
      <use xlink:href="#DejaVuSansMono-25af" x="120.410156"/>
      <use xlink:href="#DejaVuSansMono-25af" x="180.615234"/>
      <use xlink:href="#DejaVuSansMono-1d4b7" x="240.820312"/>
      <use xlink:href="#DejaVuSansMono-25af" x="301.025391"/>
      <use xlink:href="#DejaVuSansMono-25af" x="361.230469"/>
     </g>
    </g>
   </g>
  </g>
 </g>
 <defs>
  <clipPath id="pa2f0b37b86">
   <rect x="0" y="-0" width="266.112" height="266.112"/>
  </clipPath>
 </defs>
</svg>
